<?xml version="1.0" standalone="no"?>
<!DOCTYPE svg PUBLIC "-//W3C//DTD SVG 20010904//EN"
 "http://www.w3.org/TR/2001/REC-SVG-20010904/DTD/svg10.dtd">
<svg version="1.0" xmlns="http://www.w3.org/2000/svg"
 width="500.000000pt" height="500.000000pt" viewBox="0 0 500.000000 500.000000"
 preserveAspectRatio="xMidYMid meet">
<metadata>
Created by potrace 1.11, written by Peter Selinger 2001-2013
</metadata>
<g transform="translate(0.000000,500.000000) scale(0.100000,-0.100000)"
fill="#000000" stroke="none">
<path d="M0 2500 l0 -2500 2500 0 2500 0 0 2500 0 2500 -2500 0 -2500 0 0
-2500z m1571 1315 c172 -22 378 -79 510 -138 l47 -22 -100 -252 -101 -252 -46
23 c-188 95 -494 156 -634 126 -72 -15 -132 -66 -142 -122 -10 -52 23 -116 79
-156 25 -18 167 -92 318 -166 378 -185 474 -259 558 -431 99 -203 87 -477 -31
-677 -162 -276 -500 -415 -955 -394 -233 10 -408 47 -574 122 l-60 27 0 288 0
289 38 -16 c221 -99 396 -152 575 -174 125 -16 249 -9 308 17 121 55 149 175
62 265 -37 39 -86 65 -468 248 -260 124 -406 270 -468 465 -19 60 -22 92 -22
230 0 143 3 168 24 234 68 208 248 362 506 435 158 45 383 57 576 31z m1579
-490 l0 -445 385 0 385 0 0 445 0 445 320 0 320 0 0 -1200 0 -1200 -320 0
-320 0 0 490 0 490 -385 0 -385 0 0 -490 0 -490 -320 0 -320 0 0 1200 0 1200
320 0 320 0 0 -445z"/>
</g>
</svg>
