<?xml version="1.0" encoding="utf-8"?>
<!-- Generator: Adobe Illustrator 23.0.2, SVG Export Plug-In . SVG Version: 6.00 Build 0)  -->
<svg version="1.1" id="Layer_1" xmlns="http://www.w3.org/2000/svg" xmlns:xlink="http://www.w3.org/1999/xlink" x="0px" y="0px"
	 viewBox="0 0 95 33.17" style="enable-background:new 0 0 95 33.17;" xml:space="preserve">
<style type="text/css">
	.st0{fill:#221F1F;}
	.st1{fill:#6AC6CB;}
	.st2{fill:#E63A32;}
</style>
<g>
	<g>
		<g>
			<g>
				<g>
					<polygon class="st0" points="9.3,23.25 6.9,19.38 4.74,19.38 4.74,28.54 6.71,28.54 6.71,22.6 9.25,26.48 9.3,26.48 
						11.86,22.56 11.86,28.54 13.86,28.54 13.86,19.38 11.69,19.38 					"/>
					<path class="st0" d="M20.5,19.22c-2.81,0-4.86,2.13-4.86,4.74v0.03c0,2.61,2.02,4.71,4.83,4.71c2.81,0,4.86-2.13,4.86-4.74
						v-0.03C25.33,21.33,23.31,19.22,20.5,19.22z M23.23,23.99c0,1.57-1.12,2.85-2.74,2.85c-1.62,0-2.76-1.31-2.76-2.88v-0.03
						c0-1.57,1.12-2.85,2.74-2.85c1.62,0,2.76,1.31,2.76,2.88V23.99z"/>
					<polygon class="st0" points="35.24,19.38 32.82,19.38 29.12,23.39 29.12,19.38 27.11,19.38 27.11,28.54 29.12,28.54 
						29.12,25.74 30.18,24.64 33,28.54 35.41,28.54 31.53,23.27 					"/>
					<path class="st0" d="M40.17,19.31l-3.91,9.23h2.05l0.83-2.06h3.86l0.83,2.06h2.1l-3.91-9.23H40.17z M39.85,24.71l1.21-2.97
						l1.21,2.97H39.85z"/>
					<path class="st0" d="M53.37,23.75c0.65-0.37,1.2-0.94,1.2-1.98v-0.03c0-0.63-0.21-1.14-0.63-1.56
						c-0.52-0.52-1.34-0.81-2.38-0.81h-4.23v9.17h4.34c2.06,0,3.41-0.84,3.41-2.51V26C55.08,24.77,54.43,24.16,53.37,23.75z
						 M49.28,21.15h1.98c0.85,0,1.32,0.34,1.32,0.94v0.03c0,0.68-0.56,0.97-1.45,0.97h-1.85V21.15z M53.09,25.78
						c0,0.68-0.53,1-1.42,1h-2.38v-2.02h2.32c1.03,0,1.48,0.38,1.48,1V25.78z"/>
					<path class="st0" d="M9.4,17.36c0.13,0.06,0.27,0.08,0.42,0.08c0.15,0,0.29-0.03,0.42-0.08c0.13-0.06,0.24-0.13,0.34-0.23
						c0.1-0.1,0.17-0.21,0.23-0.34c0.06-0.13,0.08-0.27,0.08-0.42c0-0.15-0.03-0.29-0.08-0.42c-0.06-0.13-0.13-0.24-0.23-0.34
						c-0.1-0.1-0.21-0.17-0.34-0.23c-0.25-0.11-0.58-0.11-0.83,0c-0.13,0.06-0.24,0.13-0.34,0.23c-0.1,0.1-0.17,0.21-0.23,0.34
						c-0.06,0.13-0.08,0.27-0.08,0.42c0,0.15,0.03,0.29,0.08,0.42c0.05,0.13,0.13,0.24,0.23,0.34C9.16,17.22,9.28,17.3,9.4,17.36z"
						/>
					<path class="st0" d="M48.93,12.99c0.13,0.11,0.27,0.22,0.42,0.33c0.18,0.13,0.4,0.26,0.64,0.36c0.24,0.11,0.51,0.19,0.81,0.26
						c0.3,0.07,0.64,0.1,1.02,0.1c0.53,0,1.02-0.09,1.43-0.28c0.41-0.18,0.77-0.43,1.05-0.74c0.28-0.31,0.5-0.66,0.65-1.05
						c0.15-0.39,0.22-0.81,0.22-1.23c0-0.27-0.03-0.54-0.09-0.83v0c-0.06-0.28-0.16-0.57-0.28-0.83c-0.13-0.27-0.29-0.53-0.48-0.76
						c-0.19-0.24-0.42-0.45-0.69-0.63c-0.26-0.18-0.56-0.32-0.89-0.43c-0.33-0.11-0.7-0.16-1.1-0.16c-0.28,0-0.6,0.05-0.95,0.15
						c-0.35,0.1-0.71,0.3-1.08,0.6c-0.36,0.3-0.72,0.72-1.05,1.26c-0.34,0.54-0.64,1.26-0.9,2.13c-0.1,0.33-0.24,0.57-0.4,0.68
						c-0.18,0.13-0.39,0.19-0.63,0.19h-2.45c-0.87,0-1.4-0.13-1.47-0.88l0.01,0.09c0-0.03-0.01-0.06-0.01-0.09l0,0
						c-0.26-1.95-1.5-2.89-3.78-2.89h-6.38l3.6-3.69h-2.39l-3.69,3.74v1.71h8.88c1.11,0,1.71,0.69,1.74,2.01H27.12
						c-0.05,0-0.09,0-0.13,0.01c-0.41,0-0.78-0.03-1.11-0.08c-0.25-0.04-0.45-0.08-0.61-0.13c0.11-0.1,0.23-0.22,0.34-0.34
						c0.15-0.16,0.3-0.33,0.44-0.49c0.14-0.16,0.27-0.32,0.39-0.48c0.12-0.15,0.22-0.29,0.31-0.41c0.14-0.19,0.25-0.34,0.34-0.45
						c0.09-0.11,0.15-0.19,0.19-0.23l0.03-0.03l-0.01-0.04c-0.02-0.11-0.06-0.24-0.11-0.39c-0.05-0.15-0.1-0.29-0.17-0.44
						c-0.06-0.15-0.13-0.28-0.21-0.4c-0.08-0.13-0.16-0.22-0.26-0.27c-0.17-0.09-0.38-0.18-0.62-0.28c-0.24-0.1-0.52-0.19-0.82-0.28
						c-0.3-0.09-0.63-0.16-0.98-0.21c-0.12-0.02-0.26-0.04-0.44-0.05c-0.16,0.02-0.3,0.03-0.42,0.05c-0.35,0.06-0.68,0.13-0.98,0.21
						c-0.3,0.09-0.58,0.18-0.82,0.28c-0.24,0.1-0.45,0.2-0.62,0.29c-0.09,0.05-0.17,0.14-0.25,0.27c-0.08,0.12-0.15,0.25-0.21,0.4
						c-0.06,0.15-0.12,0.29-0.17,0.44c-0.05,0.15-0.09,0.28-0.11,0.39l-0.01,0.04l0.03,0.03c0.04,0.05,0.1,0.12,0.19,0.23
						c0.09,0.11,0.2,0.26,0.34,0.45c0.09,0.12,0.19,0.25,0.31,0.41c0.12,0.16,0.25,0.32,0.39,0.48c0.14,0.16,0.29,0.33,0.44,0.49
						c0.11,0.12,0.23,0.24,0.34,0.34c-0.16,0.05-0.36,0.09-0.61,0.13c-0.33,0.05-0.7,0.08-1.11,0.08l-0.83,0
						c-0.07-0.01-0.16-0.01-0.25-0.01h-0.06c-0.33,0-0.95-0.03-1.22-0.08c-0.26-0.05-0.5-0.11-0.73-0.2
						c0.01-0.07,0.01-0.13,0.02-0.2c0.01-0.09,0.01-0.19,0.01-0.28V7.7H15.2v3.36c0,0.21-0.02,0.38-0.05,0.52
						c-0.03,0.13-0.08,0.23-0.15,0.31c-0.06,0.07-0.15,0.12-0.25,0.15c-0.11,0.03-0.25,0.05-0.41,0.05H9.49
						c-0.63,0-1.16-0.03-1.55-0.09c-0.39-0.06-0.69-0.15-0.91-0.28c-0.21-0.12-0.35-0.28-0.42-0.47c-0.07-0.2-0.11-0.44-0.11-0.73
						c0-0.19,0.01-0.38,0.04-0.57c0.03-0.19,0.06-0.39,0.1-0.58l0.02-0.09L4.72,9.11L4.7,9.19C4.68,9.32,4.65,9.47,4.63,9.62
						c-0.02,0.15-0.04,0.31-0.06,0.46c-0.02,0.15-0.03,0.3-0.04,0.44c-0.01,0.14-0.02,0.26-0.02,0.37c0,0.28,0.02,0.54,0.07,0.8
						c0.05,0.26,0.14,0.51,0.26,0.73c0.12,0.23,0.3,0.44,0.51,0.63c0.22,0.19,0.49,0.35,0.82,0.48c0.33,0.13,0.72,0.24,1.18,0.31
						c0.45,0.07,0.99,0.11,1.6,0.11h6.05c0.39,0,0.73-0.06,1.01-0.18c0.25-0.11,0.47-0.25,0.65-0.43c0.27,0.17,0.57,0.32,0.91,0.43
						c0.29,0.09,0.77,0.14,1.03,0.15c0.02,0.01,0.04,0.01,0.06,0.02c0.09,0.02,0.56,0.02,0.65,0.02h1c0.34,0,0.67-0.02,0.99-0.07
						c0.32-0.05,0.63-0.11,0.91-0.19c0.29-0.08,0.56-0.17,0.82-0.27c0.24-0.09,0.46-0.19,0.66-0.29c0.2,0.1,0.42,0.2,0.66,0.29
						c0.25,0.1,0.53,0.19,0.82,0.27c0.29,0.08,0.59,0.14,0.91,0.19c0.32,0.05,0.65,0.07,0.99,0.07h14.16c0.34,0,0.64-0.2,0.78-0.5
						c0.04-0.08,0.08-0.17,0.11-0.26c0.38,0.49,1.38,0.76,2.03,0.76h2.7C47.75,13.96,48.44,13.63,48.93,12.99z M49.74,11.56
						c0.07-0.33,0.17-0.67,0.29-0.99c0.13-0.33,0.27-0.63,0.44-0.89c0.17-0.25,0.36-0.46,0.57-0.62c0.21-0.15,0.43-0.23,0.67-0.23
						c0.26,0,0.48,0.06,0.68,0.18c0.2,0.12,0.37,0.28,0.5,0.46c0.14,0.18,0.24,0.38,0.31,0.6c0.07,0.21,0.1,0.41,0.1,0.6
						c0,0.27-0.04,0.51-0.12,0.69l0,0c-0.08,0.18-0.19,0.33-0.33,0.45c-0.15,0.12-0.32,0.2-0.53,0.26
						c-0.35,0.09-0.78,0.12-1.26,0.02c-0.2-0.04-0.39-0.09-0.57-0.15c-0.18-0.06-0.34-0.13-0.49-0.2
						C49.9,11.67,49.81,11.61,49.74,11.56z M25.31,9.14c-0.07,0.11-0.16,0.25-0.27,0.41c-0.14,0.19-0.3,0.4-0.47,0.6
						c-0.17,0.21-0.35,0.41-0.54,0.6l0,0c-0.11,0.11-0.22,0.22-0.32,0.31c-0.11-0.09-0.21-0.2-0.32-0.31
						c-0.18-0.19-0.36-0.39-0.54-0.6c-0.17-0.21-0.33-0.41-0.47-0.6c-0.11-0.15-0.2-0.29-0.27-0.41c0.11-0.05,0.24-0.1,0.36-0.14
						c0.16-0.05,0.32-0.1,0.49-0.14c0.16-0.04,0.32-0.07,0.47-0.09c0.09-0.01,0.18-0.02,0.28-0.03c0.1,0.01,0.19,0.01,0.29,0.03
						c0.15,0.02,0.31,0.05,0.47,0.09C24.62,8.9,24.79,8.94,24.95,9C25.07,9.04,25.19,9.09,25.31,9.14z"/>
				</g>
				<g>
					<path class="st0" d="M3.18,1.7C2,1.7,1.03,2.66,1.03,3.86C1.03,5.04,1.99,6,3.17,6c1.18,0,2.15-0.97,2.15-2.16
						C5.31,2.66,4.36,1.7,3.18,1.7z M3.17,5.63c-0.98,0-1.75-0.77-1.75-1.77c0-0.99,0.77-1.77,1.76-1.77c0.98,0,1.75,0.77,1.75,1.76
						v0.01C4.93,4.85,4.16,5.63,3.17,5.63z"/>
					<g>
						<path class="st0" d="M4.16,3.42V3.41c0-0.2-0.06-0.36-0.18-0.48C3.83,2.77,3.6,2.69,3.3,2.69H2.32V4.9h0.49V4.18h0.37h0.01
							L3.66,4.9h0.57L3.69,4.1C3.97,4,4.16,3.78,4.16,3.42z M3.67,3.45c0,0.18-0.13,0.32-0.38,0.32H2.81V3.12h0.47
							c0.24,0,0.39,0.11,0.39,0.32V3.45z"/>
					</g>
				</g>
			</g>
		</g>
	</g>
	<g>
		<path class="st1" d="M87.63,0.59h-7.61h-3.94h-7.61c-3.5,0-6.33,2.85-6.33,6.37v7.65v3.96v7.65c0,3.52,2.84,6.37,6.33,6.37h5.63
			c1.09,0,1.98-0.89,1.98-1.99v0c0-1.1-0.89-1.99-1.98-1.99h-5.63c-1.31,0-2.38-1.07-2.38-2.39v-7.65V14.6V6.95
			c0-1.32,1.07-2.39,2.38-2.39h7.61h3.94h7.61c1.31,0,2.38,1.07,2.38,2.39v5.66c0,1.1,0.89,1.99,1.98,1.99h0
			c1.09,0,1.98-0.89,1.98-1.99V6.95C93.97,3.44,91.13,0.59,87.63,0.59z"/>
		<path class="st2" d="M90.01,26.22c0,1.32-1.07,2.39-2.38,2.39H82c-1.09,0-1.98,0.89-1.98,1.99v0c0,1.1,0.89,1.99,1.98,1.99h5.63
			c3.5,0,6.33-2.85,6.33-6.37v-5.66c0-1.1-0.89-1.99-1.98-1.99h0c-1.09,0-1.98,0.89-1.98,1.99V26.22z"/>
	</g>
</g>
</svg>
